General

Format                           : MPEG-4
Format profile                   : Base Media
Codec ID                         : isom
File size                        : 62.2 MiB
Duration                         : 3mn 45s
Overall bit rate                 : 2 311 Kbps
Encoded date                     : UTC 2012-06-15 00:46:33
Tagged date                      : UTC 2012-06-15 00:46:33

Video
ID                               : 1
Format                           : AVC
Format/Info                      : Advanced Video Codec
Format profile                   : High@L3.0
Format settings, CABAC           : Yes
Format settings, ReFrames        : 2 frames
Codec ID                         : avc1
Codec ID/Info                    : Advanced Video Coding
Duration                         : 3mn 45s
Bit rate mode                    : Variable
Bit rate                         : 2 270 Kbps
Maximum bit rate                 : 26.7 Mbps
Width                            : 720 pixels
Height                           : 480 pixels
Display aspect ratio             : 16:9
Original display aspect ratio    : 16:9
Frame rate mode                  : Constant
Frame rate                       : 23.976 fps
Standard                         : NTSC
Color space                      : YUV
Chroma subsampling               : 4:2:0
Bit depth                        : 8 bits
Scan type                        : Progressive
Bits/(Pixel*Frame)               : 0.274
Stream size                      : 60.4 MiB (97%)



Audio
ID                               : 2
Format                           : AAC
Format/Info                      : Advanced Audio Codec
Format profile                   : LC
Codec ID                         : 40
Duration                         : 3mn 45s
Bit rate mode                    : Variable
Bit rate                         : 60.1 Kbps
Maximum bit rate                 : 74.8 Kbps
Channel(s)                       : 2 channels
Channel positions                : Front: L R
Sampling rate                    : 44.1 KHz
Compression mode                 : Lossy
Stream size                      : 1.62 MiB (3%)